{"title":"Sexy Beast [2000] BRRip x264 [Zeberzee] ","uid":6260631,"size":345310811,"categoryP":"video","categoryS":"movies","magnet":"?xt=urn:btih:2e39a5e7f6d18c146e7ddd6cf715b5ce5f1c4476&amp;dn=Sexy+Beast+%5B2000%5D+BRRip+x264+%5BZeberzee%5D+&amp;tr=udp%3A%2F%2Ftracker.openbittorrent.com%3A80&amp;tr=udp%3A%2F%2Fopen.demonii.com%3A1337&amp;tr=udp%3A%2F%2Ftracker.coppersurfer.tk%3A6969&amp;tr=udp%3A%2F%2Fexodus.desync.com%3A6969","seeders":1,"leechers":0,"uploader":"Zeberzee","files":-1,"time":1300739807,"description":" &lt;a href=&quot;http://www.imdb.com/title/tt0203119/&quot; rel=&quot;nofollow&quot; target=&quot;_NEW&quot;&gt;http://www.imdb.com/title/tt0203119/&lt;/a&gt;\n\nIn the twilight of his career, Gary, a retired gangster, has just retired to a posh Spanish hacienda with his loving wife Deedee. However, all is not well in paradise. Rumbling over the horizon comes Don &quot;Malky&quot; Logan. Logan is the one-time friend but now foe of Gary and is intent on persuading him to return to London for one last big job\n\nStars:Ray Winstone, Ben Kingsley and Ian McShane \n\n &lt;a href=&quot;\nhttp://leetleech.org/images/15026048067791129756.png&quot; rel=&quot;nofollow&quot; target=&quot;_NEW&quot;&gt;\nhttp://leetleech.org/images/15026048067791129756.png&lt;/a&gt; &lt;a href=&quot;\nhttp://leetleech.org/images/19561930769988213277.png&quot; rel=&quot;nofollow&quot; target=&quot;_NEW&quot;&gt;\nhttp://leetleech.org/images/19561930769988213277.png&lt;/a&gt; &lt;a href=&quot;\nhttp://leetleech.org/images/02325519606509520622.png&quot; rel=&quot;nofollow&quot; target=&quot;_NEW&quot;&gt;\nhttp://leetleech.org/images/02325519606509520622.png&lt;/a&gt; &lt;a href=&quot;\nhttp://leetleech.org/images/50496500270952603768.png&quot; rel=&quot;nofollow&quot; target=&quot;_NEW&quot;&gt;\nhttp://leetleech.org/images/50496500270952603768.png&lt;/a&gt;\n\nGeneral\nFormat : MPEG-4\nFormat profile : Base Media\nCodec ID : isom\nFile size : 326 MiB\nDuration : 1h 28mn\nOverall bit rate : 516 Kbps\nSource : Sexy.Beast.1080p.AC3(DD).5.1ch.Bluray.PS3 thanks\nSample : Yes \n\nVideo\nID : 1\nFormat : AVC\nFormat/Info : Advanced Video Codec\nFormat profile : &lt;a class=&quot;__cf_email__&quot; href=&quot;/cdn-cgi/l/email-protection&quot; data-cfemail=&quot;1c54757b745c5028322d&quot;&gt;[email&amp;#160;protected]&lt;/a&gt;&lt;script cf-hash='f9e31' type=&quot;text/javascript&quot;&gt;\n/* &lt;![CDATA[ */!function(){try{var t=&quot;currentScript&quot;in document?document.currentScript:function(){for(var t=document.getElementsByTagName(&quot;script&quot;),e=t.length;e--;)if(t[e].getAttribute(&quot;cf-hash&quot;))return t[e]}();if(t&amp;&amp;t.previousSibling){var e,r,n,i,c=t.previousSibling,a=c.getAttribute(&quot;data-cfemail&quot;);if(a){for(e=&quot;&quot;,r=parseInt(a.substr(0,2),16),n=2;a.length-n;n+=2)i=parseInt(a.substr(n,2),16)^r,e+=String.fromCharCode(i);e=document.createTextNode(e),c.parentNode.replaceChild(e,c)}}}catch(u){}}();/* ]]&gt; */&lt;/script&gt;\nFormat settings, CABAC : Yes\nFormat settings, ReFrames : 4 frames\nCodec ID : avc1\nCodec ID/Info : Advanced Video Coding\nDuration : 1h 28mn\nBit rate mode : Variable\nBit rate : 412 Kbps\nMaximum bit rate : 2 207 Kbps\nWidth : 640 pixels\nHeight : 360 pixels\nDisplay aspect ratio : 16:9\nFrame rate mode : Constant\nFrame rate : 23.976 fps\nScan type : Progressive\nBits/(Pixel*Frame) : 0.075\nStream size : 260 MiB (80%)\nTitle : Imported with GPAC 0.4.6-DEV (build 1)\nWriting library : x264 core 92 r1510 33d382a\nSubtitles : None\n\nAudio\nID : 2\nFormat : AAC\nFormat/Info : Advanced Audio Codec\nFormat profile : LC\nCodec ID : 40\nDuration : 1h 28mn\nBit rate mode : Variable\nBit rate : 99.9 Kbps\nMaximum bit rate : 173 Kbps\nChannel(s) : 2 channels\nChannel positions : Front: L R\nSampling rate : 48.0 KHz\nCompression mode : Lossy\nStream size : 63.1 MiB (19%)","torrent":{"xt":"urn:btih:2e39a5e7f6d18c146e7ddd6cf715b5ce5f1c4476","amp;dn":"Sexy+Beast+%5B2000%5D+BRRip+x264+%5BZeberzee%5D+","amp;tr":["udp%3A%2F%2Ftracker.openbittorrent.com%3A80","udp%3A%2F%2Fopen.demonii.com%3A1337","udp%3A%2F%2Ftracker.coppersurfer.tk%3A6969","udp%3A%2F%2Fexodus.desync.com%3A6969"],"infoHash":"2e39a5e7f6d18c146e7ddd6cf715b5ce5f1c4476","infoHashBuffer":{"type":"Buffer","data":[46,57,165,231,246,209,140,20,110,125,221,108,247,21,181,206,95,28,68,118]},"announce":[],"urlList":[]}}